<?xml version="1.0" encoding="utf-8"?>
<!-- Generator: Adobe Illustrator 24.2.3, SVG Export Plug-In . SVG Version: 6.00 Build 0)  -->
<svg version="1.1" id="Layer_1" xmlns="http://www.w3.org/2000/svg" xmlns:xlink="http://www.w3.org/1999/xlink" x="0px" y="0px"
	 viewBox="0 0 83 100" style="enable-background:new 0 0 83 100;" xml:space="preserve">
<style type="text/css">
	.st0{fill:#0099FF;}
</style>
<g>
	<path class="st0" d="M29.13,98.9c-1.34,0-2.7-0.13-4.09-0.42c-4.8-0.97-8.94-3.75-11.37-7.63c-2.18-3.47-2.82-7.53-1.82-11.42
		c0.41-1.61,2.04-2.57,3.65-2.16c1.6,0.41,2.57,2.05,2.16,3.65c-0.59,2.29-0.2,4.68,1.09,6.75c1.56,2.49,4.28,4.29,7.48,4.93
		c6.45,1.31,12.39-1.9,13.82-7.46c2.23-8.69,5.09-14.64,8.72-18.2c2.93-2.87,6.71-4.85,10.72-6.94c7.31-3.83,14.22-7.44,16.49-16.29
		c1.88-7.32,0.65-14.98-3.47-21.56C67.7,14.48,59.37,8.95,49.66,6.98c-17.11-3.46-34.6,4.81-40.71,19.23
		c-0.55,1.31-1,2.65-1.34,3.98c-0.41,1.6-2.04,2.58-3.65,2.16c-1.6-0.41-2.57-2.05-2.16-3.65c0.41-1.61,0.96-3.23,1.63-4.82
		C10.62,6.87,31.01-2.91,50.85,1.1c11.32,2.29,21.07,8.8,26.75,17.87c5,7.99,6.49,17.3,4.2,26.24
		c-2.94,11.43-12.13,16.25-19.52,20.12c-3.6,1.89-7,3.67-9.31,5.92c-2.79,2.72-5.18,7.91-7.11,15.4C43.94,94.1,37.1,98.9,29.13,98.9
		z"/>
</g>
</svg>
